# xmcd
#
# Track frame offsets: 
#        150
#        33552
#        80325
#        127125
#        167925
#        210475
#
# Disc length: 3397 seconds
#
# Revision: 1
# Processed by: cddbd v1.5.2PL0 Copyright (c) Steve Scherf et al.
# Submitted via: ExactAudioCopy v1.0b3
#
DISCID=4f0d4306
DTITLE=Kang Qiao - The Circle Of Nature
DYEAR=1998
DGENRE=New Age
TTITLE0=康喬 - 元亨利真
TTITLE1=康喬 - 覆霜
TTITLE2=康喬 - 飛龍在天
TTITLE3=康喬 - 風雲巽
TTITLE4=康喬 - 天地之心
TTITLE5=康喬 - 萬物皆相見
EXTD=YEAR: 1998
EXTT0=
EXTT1=
EXTT2=
EXTT3=
EXTT4=
EXTT5=
PLAYORDER=
